<svg width="106" height="89" viewBox="0 0 106 89" fill="none" xmlns="http://www.w3.org/2000/svg">
<path d="M12.6218 76.8636L0 89V6.31091C0 2.82549 2.82549 0 6.31091 0C9.79633 0 12.6218 2.82549 12.6218 6.31091V76.8636ZM105.182 48.5455C105.182 70.8879 86.3452 89 63.1091 89H0L12.6218 76.8636H63.1091C79.3744 76.8636 92.56 64.1852 92.56 48.5455V6.31091C92.56 2.82549 95.3855 0 98.8709 0C102.356 0 105.182 2.82549 105.182 6.31091V48.5455Z" fill="white"/>
<path d="M44.415 11.1625C43.3269 9.83258 41.5204 9.75757 40.3532 10.9945L31.0692 21.2544L27.1526 16.5447C26.0645 15.2148 24.2581 15.1398 23.0908 16.3767C21.9671 17.7417 21.9671 19.8893 23.0908 21.2544L29.0382 28.3187C29.5529 28.987 30.2965 29.3566 31.0689 29.328C31.8342 29.3154 32.5641 28.9526 33.0997 28.3187L44.4144 15.8722C45.5362 14.6791 45.6111 12.6573 44.5819 11.357C44.5291 11.289 44.4733 11.2243 44.415 11.1625Z" fill="white"/>
<path d="M78.6318 11.1625C77.5437 9.83258 75.7372 9.75757 74.57 10.9945L65.286 21.2544L61.3694 16.5447C60.2813 15.2148 58.4749 15.1398 57.3076 16.3767C56.1839 17.7417 56.1839 19.8893 57.3076 21.2544L63.255 28.3187C63.7697 28.987 64.5133 29.3566 65.2857 29.328C66.051 29.3154 66.7809 28.9526 67.3165 28.3187L78.6312 15.8722C79.753 14.6791 79.8279 12.6573 78.7987 11.357C78.7459 11.289 78.6901 11.2243 78.6318 11.1625Z" fill="white"/>
<path d="M76.5545 48.5224C77.2723 46.6994 76.6918 44.4959 75.2622 43.5714C73.8296 42.6531 72.0766 43.3761 71.3375 45.183C71.1232 45.7046 65.9334 57.9868 50.5675 57.9868C35.2387 57.9868 30.0372 45.7651 29.7995 45.188C29.076 43.3663 27.3239 42.6284 25.8875 43.5479C24.4442 44.4637 23.8589 46.6908 24.5805 48.5224C24.8532 49.212 31.4512 65.4021 50.5675 65.4021C69.6838 65.4021 76.2818 49.212 76.5545 48.5224Z" fill="white"/>
</svg>
