<svg xmlns="http://www.w3.org/2000/svg" viewBox="0 0 48 48">
  <path fill="#FFC107" d="M43.6 20.1H42V20H24v8h11.3C33.7 32.7 29.2 36 24 36c-6.6 0-12-5.4-12-12s5.4-12 12-12c3.1 0 5.8 1.1 7.9 3l5.7-5.7C34.5 6.5 29.6 4 24 4 12.9 4 4 12.9 4 24s8.9 20 20 20 20-8.9 20-20c0-1.3-.1-2.7-.4-3.9z"/>
  <path fill="#FF3D00" d="M6.3 14.7l6.6 4.8C14.7 16 19.1 13 24 13c3.1 0 5.8 1.1 7.9 3l5.7-5.7C34.5 6.5 29.6 4 24 4 16.3 4 9.7 8.3 6.3 14.7z"/>
  <path fill="#4CAF50" d="M24 44c5.5 0 10.5-2.1 14.2-5.5l-6.6-5.6C29.7 34.9 27 36 24 36c-5.2 0-9.6-3.3-11.3-7.9l-6.5 5C9.5 39.6 16.2 44 24 44z"/>
  <path fill="#1976D2" d="M43.6 20.1H42V20H24v8h11.3c-.8 2.3-2.4 4.2-4.4 5.5l6.6 5.6C43 35.1 44 30 44 24c0-1.3-.1-2.7-.4-3.9z"/>
</svg>
