<svg width="48" height="40" viewBox="0 0 48 40" fill="none" xmlns="http://www.w3.org/2000/svg">
<path d="M5.67273 34.5455L0 40V2.83637C0 1.26989 1.26988 0 2.83636 0C4.40284 0 5.67273 1.26988 5.67273 2.83636V34.5455ZM47.2727 21.8182C47.2727 31.8597 38.8068 40 28.3636 40H0L5.67273 34.5455H28.3636C35.6739 34.5455 41.6 28.8473 41.6 21.8182V2.83636C41.6 1.26988 42.8699 0 44.4364 0C46.0028 0 47.2727 1.26988 47.2727 2.83636V21.8182Z" fill="#3366FF"/>
<path d="M19.9626 5.01676C19.4735 4.41903 18.6617 4.38532 18.1371 4.94123L13.9645 9.55246L12.2043 7.43574C11.7152 6.83801 10.9034 6.8043 10.3788 7.36021C9.87375 7.97371 9.87375 8.93896 10.3788 9.55246L13.0517 12.7275C13.2831 13.0278 13.6173 13.194 13.9644 13.1811C14.3083 13.1754 14.6364 13.0124 14.8771 12.7275L19.9623 7.13348C20.4665 6.59724 20.5002 5.68857 20.0376 5.10415C20.0139 5.07362 19.9888 5.04454 19.9626 5.01676Z" fill="#3366FF"/>
<path d="M35.3405 5.01676C34.8515 4.41903 34.0396 4.38532 33.515 4.94123L29.3425 9.55246L27.5822 7.43574C27.0932 6.83801 26.2813 6.8043 25.7567 7.36021C25.2517 7.97371 25.2517 8.93896 25.7567 9.55246L28.4296 12.7275C28.661 13.0278 28.9952 13.194 29.3423 13.1811C29.6863 13.1754 30.0143 13.0124 30.255 12.7275L35.3403 7.13348C35.8444 6.59724 35.8781 5.68857 35.4155 5.10415C35.3918 5.07362 35.3667 5.04454 35.3405 5.01676Z" fill="#3366FF"/>
<path d="M34.4072 21.8076C34.7298 20.9884 34.4689 19.998 33.8264 19.5825C33.1825 19.1698 32.3946 19.4947 32.0624 20.3068C31.9661 20.5412 29.6336 26.0613 22.7276 26.0613C15.8382 26.0613 13.5005 20.5684 13.3937 20.309C13.0685 19.4903 12.2811 19.1587 11.6355 19.5719C10.9868 19.9835 10.7237 20.9845 11.0481 21.8076C11.1706 22.1176 14.136 29.394 22.7276 29.394C31.3192 29.394 34.2846 22.1176 34.4072 21.8076Z" fill="#3366FF"/>
</svg>
