<svg xmlns="http://www.w3.org/2000/svg" viewBox="0 0 48 48">
  <circle cx="24" cy="24" r="22" fill="#21759b"/>
  <path fill="#fff" d="M3.6 24C3.6 12.7 12.7 3.6 24 3.6S44.4 12.7 44.4 24 35.3 44.4 24 44.4 3.6 35.3 3.6 24zM24 6c-9.9 0-18 8.1-18 18 0 7.4 4.5 13.8 10.9 16.6L22.5 16h-3.6V14H30v2h-3.8L30.8 34l3.4-11.3c.6-2 .9-3.4.9-4.7 0-1.9-1.1-2.9-2-2.9V14h8.3C39.2 9.2 32 6 24 6zm8.9 30.6L27 19.7 21.2 36.5c.9.3 1.8.4 2.8.4 3.2 0 6.1-1.1 8.4-2.9l-.5.6zm6-14c0-2.5-.9-4.3-1.7-5.7l4.8 14.1c1.1-2.4 1.7-5 1.7-7.8-.8-1.4-1.6-2.7-1.6-4.6l-3.2.0z"/>
</svg>
