<svg xmlns="http://www.w3.org/2000/svg" version="1.1" xmlns:xlink="http://www.w3.org/1999/xlink" width="512" height="512" x="0" y="0" viewBox="0 0 512 512" style="enable-background:new 0 0 512 512" xml:space="preserve" class=""><g><path d="M256 0C114.615 0 0 114.615 0 256s114.615 256 256 256 256-114.615 256-256S397.385 0 256 0zm0 488.727C127.468 488.727 23.273 384.532 23.273 256S127.468 23.273 256 23.273 488.727 127.468 488.727 256 384.532 488.727 256 488.727z" fill="#0384d3" opacity="1" data-original="#000000"></path><path d="M256 116.364c-77.119 0-139.636 62.517-139.636 139.636S178.881 395.636 256 395.636 395.636 333.119 395.636 256 333.119 116.364 256 116.364zM139.636 256a116.365 116.365 0 0 1 9.193-45.498l54.458 149.178c-39.032-19.833-63.628-59.898-63.651-103.68zM256 372.364a116.369 116.369 0 0 1-32.815-4.771l34.909-101.236s31.418 85.993 36.422 99.375A116.387 116.387 0 0 1 256 372.364zm16.291-171.869c7.098 0 13.498-1.164 13.498-1.164a4.9 4.9 0 1 0-.698-9.774s-19.2 1.513-31.535 1.513-31.185-1.513-31.185-1.513a4.899 4.899 0 1 0-.698 9.774s6.051.815 12.451 1.164l18.385 50.502-25.833 77.615-43.055-128c7.098 0 13.498-1.164 13.498-1.164a4.9 4.9 0 1 0-.698-9.774s-19.2 1.513-31.535 1.513h-5.469c35.911-53.297 108.227-67.391 161.524-31.48a116.276 116.276 0 0 1 11.974 9.255c-10.456 1.212-18.186 10.315-17.687 20.829a53.873 53.873 0 0 0 10.589 27.578 62.376 62.376 0 0 1 9.775 32.582 142.907 142.907 0 0 1-8.96 38.284l-11.636 39.447-42.705-127.187zm88.436 3.84A115.669 115.669 0 0 1 372.363 256a116.362 116.362 0 0 1-55.855 99.258l34.909-101.469a111.704 111.704 0 0 0 9.309-42.356l.001-7.098z" fill="#0384d3" opacity="1" data-original="#000000"></path></g></svg>