<svg id="Layer_1" enable-background="new 0 0 96 96" height="96" viewBox="0 0 96 96" width="96" xmlns="http://www.w3.org/2000/svg" xmlns:xlink="http://www.w3.org/1999/xlink"><linearGradient id="SVGID_1_" gradientUnits="userSpaceOnUse" x1="7.305" x2="88.682" y1="71.499" y2="24.516"><stop offset="0" stop-color="#4967ff"/><stop offset="1" stop-color="#43caff"/></linearGradient><path d="m92.632 33.307c-6.19-18.733-23.851-32.293-44.632-32.293s-38.442 13.56-44.631 32.293c-.031.07-.048.146-.074.219-1.484 4.567-2.296 9.435-2.296 14.49 0 25.9 21.085 46.973 47.002 46.973s47.002-21.072 47.002-46.973c0-5.055-.812-9.922-2.295-14.488-.027-.074-.045-.151-.076-.221zm-44.632 53.681c-1.62 0-6.043-6.934-8.114-21.877h16.197c-.619 4.452-1.481 8.547-2.571 12.092-2.482 8.084-5.099 9.785-5.512 9.785zm-8.918-29.877c-.186-2.821-.291-5.849-.291-9.096 0-3.258.106-6.295.292-9.125h17.817c.202 2.959.309 6.013.309 9.125 0 3.102-.107 6.146-.308 9.096zm-30.083-9.095c0-3.143.383-6.195 1.089-9.125h20.999c-.195 3.031-.295 6.093-.295 9.125 0 3.022.099 6.074.294 9.096h-21.004c-.702-2.921-1.083-5.965-1.083-9.096zm39.001-39.002c.412 0 3.029 1.701 5.513 9.789 1.088 3.544 1.951 7.637 2.569 12.088h-16.193c2.071-14.944 6.492-21.877 8.111-21.877zm16.914 29.877h21c.706 2.93 1.089 5.982 1.089 9.125 0 3.132-.382 6.176-1.083 9.096h-21.004c.195-3.021.294-6.073.294-9.096-.001-3.033-.101-6.094-.296-9.125zm18.118-8h-18.88c-.998-7.785-2.717-14.94-5.2-20.301 10.574 3.099 19.299 10.56 24.08 20.301zm-45.984-20.301c-2.483 5.36-4.202 12.516-5.2 20.301h-18.879c4.781-9.741 13.505-17.202 24.079-20.301zm-24.088 54.521h18.885c.997 7.785 2.716 14.94 5.199 20.301-10.577-3.099-19.305-10.56-24.084-20.301zm45.995 20.301c2.483-5.36 4.203-12.516 5.2-20.301h18.886c-4.779 9.741-13.507 17.202-24.086 20.301z" fill="url(#SVGID_1_)"/></svg>